<mxfile host="app.diagrams.net" modified="2024-02-29T11:03:14.895Z" agent="Mozilla/5.0 (Macintosh; Intel Mac OS X 10_15_7) AppleWebKit/537.36 (KHTML, like Gecko) Chrome/120.0.0.0 Safari/537.36" etag="sCNBZRoMUvxPLDU7hOeY" version="23.1.6" type="google">
  <diagram name="Page-1" id="c4acf3e9-155e-7222-9cf6-157b1a14988f">
    <mxGraphModel grid="1" page="1" gridSize="10" guides="1" tooltips="1" connect="1" arrows="1" fold="1" pageScale="1" pageWidth="850" pageHeight="1100" background="none" math="0" shadow="0">
      <root>
        <mxCell id="0" />
        <mxCell id="1" parent="0" />
        <mxCell id="5d2195bd80daf111-36" style="edgeStyle=orthogonalEdgeStyle;rounded=0;html=1;dashed=1;labelBackgroundColor=none;startFill=0;endArrow=open;endFill=0;endSize=10;fontFamily=Verdana;fontSize=10;" edge="1" parent="1">
          <mxGeometry relative="1" as="geometry">
            <Array as="points">
              <mxPoint x="550" y="520" />
            </Array>
            <mxPoint x="490" y="520" as="targetPoint" />
          </mxGeometry>
        </mxCell>
        <mxCell id="5d2195bd80daf111-15" value="&lt;p style=&quot;margin:0px;margin-top:4px;text-align:center;&quot;&gt;&lt;i style=&quot;border-color: var(--border-color);&quot;&gt;&lt;b style=&quot;border-color: var(--border-color);&quot;&gt;Loadable&lt;/b&gt;&lt;/i&gt;&lt;i&gt;&lt;br&gt;&lt;/i&gt;&lt;/p&gt;&lt;p style=&quot;margin:0px;margin-top:4px;text-align:center;&quot;&gt;&lt;i&gt;&amp;lt;&amp;lt;Interface&amp;gt;&amp;gt;&lt;/i&gt;&lt;/p&gt;&lt;hr size=&quot;1&quot;&gt;&lt;p style=&quot;margin:0px;margin-left:4px;&quot;&gt;+ loadCar: void&lt;br&gt;+ unloadCar: Car&lt;/p&gt;" style="verticalAlign=top;align=left;overflow=fill;fontSize=12;fontFamily=Helvetica;html=1;rounded=0;shadow=0;comic=0;labelBackgroundColor=none;strokeWidth=1" vertex="1" parent="1">
          <mxGeometry x="850" y="630" width="190" height="110" as="geometry" />
        </mxCell>
        <mxCell id="5d2195bd80daf111-18" value="&lt;p style=&quot;margin:0px;margin-top:4px;text-align:center;&quot;&gt;&lt;i&gt;Car&lt;/i&gt;&lt;/p&gt;&lt;p style=&quot;margin:0px;margin-top:4px;text-align:center;&quot;&gt;&lt;i&gt;{abstract}&lt;/i&gt;&lt;/p&gt;&lt;hr size=&quot;1&quot;&gt;&lt;p style=&quot;margin:0px;margin-left:4px;&quot;&gt;+ enginepower: double&lt;br&gt;+ currentSpeed: double&lt;/p&gt;&lt;p style=&quot;margin:0px;margin-left:4px;&quot;&gt;- x: int&amp;nbsp;&lt;/p&gt;&lt;p style=&quot;margin:0px;margin-left:4px;&quot;&gt;- y: int&lt;/p&gt;&lt;p style=&quot;margin:0px;margin-left:4px;&quot;&gt;+ size: enum&lt;/p&gt;&lt;p style=&quot;margin:0px;margin-left:4px;&quot;&gt;- x_direction: int&lt;/p&gt;&lt;p style=&quot;margin:0px;margin-left:4px;&quot;&gt;- y_direction: int&amp;nbsp;&lt;/p&gt;&lt;hr size=&quot;1&quot;&gt;&lt;p style=&quot;margin:0px;margin-left:4px;&quot;&gt;- increamentSpeed(double): void&lt;br&gt;- decreamentSpeed(double): void&lt;/p&gt;&lt;p style=&quot;margin:0px;margin-left:4px;&quot;&gt;# &lt;i&gt;speedFactor&lt;/i&gt;(double): void&lt;/p&gt;&lt;p style=&quot;margin:0px;margin-left:4px;&quot;&gt;+ gas(double): void&lt;/p&gt;&lt;p style=&quot;margin:0px;margin-left:4px;&quot;&gt;+ brake(double): void&lt;/p&gt;&lt;p style=&quot;margin:0px;margin-left:4px;&quot;&gt;+ move: void&amp;nbsp;&lt;/p&gt;&lt;p style=&quot;margin:0px;margin-left:4px;&quot;&gt;+ getSize: Size&lt;/p&gt;" style="verticalAlign=top;align=left;overflow=fill;fontSize=12;fontFamily=Helvetica;html=1;rounded=0;shadow=0;comic=0;labelBackgroundColor=none;strokeWidth=1" vertex="1" parent="1">
          <mxGeometry x="90" y="-87" width="220" height="277" as="geometry" />
        </mxCell>
        <mxCell id="5d2195bd80daf111-19" value="&lt;p style=&quot;margin:0px;margin-top:4px;text-align:center;&quot;&gt;&lt;b style=&quot;border-color: var(--border-color);&quot;&gt;Moveable&lt;/b&gt;&lt;i&gt;&lt;br&gt;&lt;/i&gt;&lt;/p&gt;&lt;p style=&quot;margin:0px;margin-top:4px;text-align:center;&quot;&gt;&lt;i&gt;&amp;lt;&amp;lt;Interface&amp;gt;&amp;gt;&lt;/i&gt;&lt;/p&gt;&lt;hr size=&quot;1&quot;&gt;&lt;p style=&quot;margin:0px;margin-left:4px;&quot;&gt;+ move: void&lt;br&gt;+ turnRight: void&lt;/p&gt;&lt;p style=&quot;margin:0px;margin-left:4px;&quot;&gt;+ turnLeft: void&lt;br&gt;&lt;/p&gt;" style="verticalAlign=top;align=left;overflow=fill;fontSize=12;fontFamily=Helvetica;html=1;rounded=0;shadow=0;comic=0;labelBackgroundColor=none;strokeWidth=1" vertex="1" parent="1">
          <mxGeometry x="470" y="-70" width="190" height="110" as="geometry" />
        </mxCell>
        <mxCell id="5d2195bd80daf111-28" style="edgeStyle=orthogonalEdgeStyle;rounded=0;html=1;dashed=1;labelBackgroundColor=none;startFill=0;endArrow=open;endFill=0;endSize=10;fontFamily=Verdana;fontSize=10;" edge="1" parent="1">
          <mxGeometry relative="1" as="geometry">
            <Array as="points">
              <mxPoint x="320" y="490" />
              <mxPoint x="320" y="460" />
            </Array>
            <mxPoint x="250" y="490" as="sourcePoint" />
          </mxGeometry>
        </mxCell>
        <mxCell id="5d2195bd80daf111-29" style="edgeStyle=orthogonalEdgeStyle;rounded=0;html=1;dashed=1;labelBackgroundColor=none;startFill=0;endArrow=open;endFill=0;endSize=10;fontFamily=Verdana;fontSize=10;" edge="1" parent="1">
          <mxGeometry relative="1" as="geometry">
            <mxPoint x="250" y="520" as="sourcePoint" />
          </mxGeometry>
        </mxCell>
        <mxCell id="5d2195bd80daf111-30" style="edgeStyle=orthogonalEdgeStyle;rounded=0;html=1;dashed=1;labelBackgroundColor=none;startFill=0;endArrow=open;endFill=0;endSize=10;fontFamily=Verdana;fontSize=10;" edge="1" parent="1">
          <mxGeometry relative="1" as="geometry">
            <Array as="points">
              <mxPoint x="300" y="580" />
              <mxPoint x="300" y="642" />
            </Array>
            <mxPoint x="250" y="580" as="sourcePoint" />
          </mxGeometry>
        </mxCell>
        <mxCell id="5d2195bd80daf111-31" style="edgeStyle=orthogonalEdgeStyle;rounded=0;html=1;dashed=1;labelBackgroundColor=none;startFill=0;endArrow=open;endFill=0;endSize=10;fontFamily=Verdana;fontSize=10;" edge="1" parent="1">
          <mxGeometry relative="1" as="geometry">
            <Array as="points">
              <mxPoint x="350" y="560" />
              <mxPoint x="350" y="560" />
            </Array>
            <mxPoint x="250" y="560" as="sourcePoint" />
          </mxGeometry>
        </mxCell>
        <mxCell id="5d2195bd80daf111-32" style="edgeStyle=orthogonalEdgeStyle;rounded=0;html=1;dashed=1;labelBackgroundColor=none;startFill=0;endArrow=open;endFill=0;endSize=10;fontFamily=Verdana;fontSize=10;" edge="1" parent="1">
          <mxGeometry relative="1" as="geometry">
            <Array as="points">
              <mxPoint x="170" y="780" />
            </Array>
            <mxPoint x="170" y="590" as="sourcePoint" />
          </mxGeometry>
        </mxCell>
        <mxCell id="5d2195bd80daf111-33" style="edgeStyle=orthogonalEdgeStyle;rounded=0;html=1;dashed=1;labelBackgroundColor=none;startFill=0;endArrow=open;endFill=0;endSize=10;fontFamily=Verdana;fontSize=10;" edge="1" parent="1">
          <mxGeometry relative="1" as="geometry">
            <Array as="points">
              <mxPoint x="140" y="978" />
            </Array>
            <mxPoint x="140" y="590" as="sourcePoint" />
          </mxGeometry>
        </mxCell>
        <mxCell id="5d2195bd80daf111-37" style="edgeStyle=orthogonalEdgeStyle;rounded=0;html=1;dashed=1;labelBackgroundColor=none;startFill=0;endArrow=open;endFill=0;endSize=10;fontFamily=Verdana;fontSize=10;" edge="1" parent="1">
          <mxGeometry relative="1" as="geometry">
            <Array as="points">
              <mxPoint x="570" y="590" />
            </Array>
            <mxPoint x="650" y="590" as="sourcePoint" />
          </mxGeometry>
        </mxCell>
        <mxCell id="BovTCXZvYHQh8eO-tCcy-2" value="&lt;p style=&quot;margin:0px;margin-top:4px;text-align:center;&quot;&gt;Volvo240&lt;/p&gt;&lt;hr size=&quot;1&quot;&gt;&lt;p style=&quot;margin:0px;margin-left:4px;&quot;&gt;+ enginepower: double&lt;br&gt;+ currentSpeed: double&lt;/p&gt;&lt;p style=&quot;margin:0px;margin-left:4px;&quot;&gt;# &lt;u&gt;TrimFactor:&lt;/u&gt;&amp;nbsp;double&lt;/p&gt;&lt;hr size=&quot;1&quot;&gt;&lt;p style=&quot;margin:0px;margin-left:4px;&quot;&gt;#speedFactor(double): double&lt;/p&gt;&lt;p style=&quot;margin:0px;margin-left:4px;&quot;&gt;+ getSize: Size&lt;/p&gt;" style="verticalAlign=top;align=left;overflow=fill;fontSize=12;fontFamily=Helvetica;html=1;rounded=0;shadow=0;comic=0;labelBackgroundColor=none;strokeWidth=1" vertex="1" parent="1">
          <mxGeometry x="40" y="345" width="190" height="160" as="geometry" />
        </mxCell>
        <mxCell id="BovTCXZvYHQh8eO-tCcy-3" value="&lt;p style=&quot;margin:0px;margin-top:4px;text-align:center;&quot;&gt;Saab95&lt;/p&gt;&lt;hr size=&quot;1&quot;&gt;&lt;p style=&quot;margin:0px;margin-left:4px;&quot;&gt;+ enginepower: double&lt;br&gt;+ currentSpeed: double&lt;/p&gt;&lt;p style=&quot;margin:0px;margin-left:4px;&quot;&gt;- turbo: boolean&lt;/p&gt;&lt;hr size=&quot;1&quot;&gt;&lt;p style=&quot;margin:0px;margin-left:4px;&quot;&gt;&lt;span style=&quot;background-color: initial;&quot;&gt;+ setTurboOn: boolean&lt;/span&gt;&lt;br&gt;&lt;/p&gt;&lt;p style=&quot;margin:0px;margin-left:4px;&quot;&gt;+ setTurboOff: boolean&lt;/p&gt;&lt;p style=&quot;margin:0px;margin-left:4px;&quot;&gt;# speedFactor(double): double&lt;/p&gt;&lt;p style=&quot;margin:0px;margin-left:4px;&quot;&gt;+ getSize: Size&amp;nbsp;&lt;/p&gt;&lt;p style=&quot;margin:0px;margin-left:4px;&quot;&gt;&lt;br&gt;&lt;/p&gt;" style="verticalAlign=top;align=left;overflow=fill;fontSize=12;fontFamily=Helvetica;html=1;rounded=0;shadow=0;comic=0;labelBackgroundColor=none;strokeWidth=1" vertex="1" parent="1">
          <mxGeometry x="280" y="345" width="190" height="155" as="geometry" />
        </mxCell>
        <mxCell id="BovTCXZvYHQh8eO-tCcy-4" value="&lt;p style=&quot;margin:0px;margin-top:4px;text-align:center;&quot;&gt;&lt;i&gt;Truck&lt;/i&gt;&lt;/p&gt;&lt;p style=&quot;margin:0px;margin-top:4px;text-align:center;&quot;&gt;&lt;i&gt;{abstract}&lt;/i&gt;&lt;br&gt;&lt;/p&gt;&lt;hr size=&quot;1&quot;&gt;&lt;p style=&quot;margin:0px;margin-left:4px;&quot;&gt;+ enginepower: double&lt;br&gt;+ currentSpeed: double&lt;/p&gt;&lt;p style=&quot;margin:0px;margin-left:4px;&quot;&gt;- size&lt;/p&gt;&lt;hr size=&quot;1&quot;&gt;&lt;p style=&quot;margin:0px;margin-left:4px;&quot;&gt;+ &lt;i&gt;raiseBed&lt;/i&gt;: void&lt;br&gt;&lt;/p&gt;&lt;p style=&quot;margin:0px;margin-left:4px;&quot;&gt;+ &lt;i&gt;lowerBed&lt;/i&gt;: void&lt;/p&gt;&lt;p style=&quot;margin:0px;margin-left:4px;&quot;&gt;# speedFactor(double): double&lt;/p&gt;&lt;p style=&quot;margin:0px;margin-left:4px;&quot;&gt;+ getSize: Size&lt;/p&gt;&lt;p style=&quot;margin:0px;margin-left:4px;&quot;&gt;&lt;br&gt;&lt;/p&gt;" style="verticalAlign=top;align=left;overflow=fill;fontSize=12;fontFamily=Helvetica;html=1;rounded=0;shadow=0;comic=0;labelBackgroundColor=none;strokeWidth=1" vertex="1" parent="1">
          <mxGeometry x="530" y="350" width="190" height="190" as="geometry" />
        </mxCell>
        <mxCell id="BovTCXZvYHQh8eO-tCcy-5" value="&lt;p style=&quot;margin:0px;margin-top:4px;text-align:center;&quot;&gt;Scania&lt;/p&gt;&lt;hr size=&quot;1&quot;&gt;&lt;p style=&quot;margin:0px;margin-left:4px;&quot;&gt;+ enginepower: double&lt;br&gt;+ currentSpeed: double&lt;/p&gt;&lt;p style=&quot;margin:0px;margin-left:4px;&quot;&gt;- platformAngle: double&lt;/p&gt;&lt;p style=&quot;margin:0px;margin-left:4px;&quot;&gt;# platform: TruckPlatform&lt;/p&gt;&lt;hr size=&quot;1&quot;&gt;&lt;p style=&quot;margin:0px;margin-left:4px;&quot;&gt;+ raiseBed: void&lt;/p&gt;&lt;p style=&quot;margin:0px;margin-left:4px;&quot;&gt;+ lowerBed: void&lt;/p&gt;&lt;p style=&quot;margin:0px;margin-left:4px;&quot;&gt;+ move(): void&lt;/p&gt;" style="verticalAlign=top;align=left;overflow=fill;fontSize=12;fontFamily=Helvetica;html=1;rounded=0;shadow=0;comic=0;labelBackgroundColor=none;strokeWidth=1" vertex="1" parent="1">
          <mxGeometry x="105" y="610" width="190" height="150" as="geometry" />
        </mxCell>
        <mxCell id="BovTCXZvYHQh8eO-tCcy-6" value="&lt;p style=&quot;margin:0px;margin-top:4px;text-align:center;&quot;&gt;CarTransport&lt;/p&gt;&lt;hr size=&quot;1&quot;&gt;&lt;p style=&quot;margin:0px;margin-left:4px;&quot;&gt;+ enginepower: double&lt;br&gt;+ currentSpeed: double&lt;/p&gt;&lt;p style=&quot;margin:0px;margin-left:4px;&quot;&gt;- carsLoaded: ArrayList&amp;lt;Car&amp;gt;&lt;/p&gt;&lt;p style=&quot;margin:0px;margin-left:4px;&quot;&gt;- maxCapacity: int&lt;/p&gt;&lt;p style=&quot;margin:0px;margin-left:4px;&quot;&gt;- platform: CarPlatform&lt;/p&gt;&lt;hr size=&quot;1&quot;&gt;&lt;p style=&quot;margin:0px;margin-left:4px;&quot;&gt;&lt;span style=&quot;background-color: initial;&quot;&gt;+ loadCar: void&lt;/span&gt;&lt;br&gt;&lt;/p&gt;&lt;p style=&quot;margin:0px;margin-left:4px;&quot;&gt;+ unloadCar: Car&lt;/p&gt;&lt;p style=&quot;margin:0px;margin-left:4px;&quot;&gt;+ getPlatformActive: boolean&lt;/p&gt;&lt;p style=&quot;margin:0px;margin-left:4px;&quot;&gt;+ getCarsLoaded: ArrayList&amp;lt;Car&amp;gt;&lt;/p&gt;&lt;p style=&quot;margin:0px;margin-left:4px;&quot;&gt;+ move(): void&lt;/p&gt;&lt;p style=&quot;margin:0px;margin-left:4px;&quot;&gt;+ moveCars: void&lt;/p&gt;&lt;p style=&quot;margin:0px;margin-left:4px;&quot;&gt;+ raiseBed: void&lt;/p&gt;&lt;p style=&quot;margin:0px;margin-left:4px;&quot;&gt;+ lowerBed: void&lt;/p&gt;&lt;p style=&quot;margin:0px;margin-left:4px;&quot;&gt;&lt;br&gt;&lt;/p&gt;&lt;p style=&quot;margin:0px;margin-left:4px;&quot;&gt;&lt;br&gt;&lt;/p&gt;&lt;p style=&quot;margin:0px;margin-left:4px;&quot;&gt;&lt;br&gt;&lt;/p&gt;" style="verticalAlign=top;align=left;overflow=fill;fontSize=12;fontFamily=Helvetica;html=1;rounded=0;shadow=0;comic=0;labelBackgroundColor=none;strokeWidth=1" vertex="1" parent="1">
          <mxGeometry x="550" y="570" width="190" height="250" as="geometry" />
        </mxCell>
        <mxCell id="BovTCXZvYHQh8eO-tCcy-7" value="&lt;p style=&quot;margin:0px;margin-top:4px;text-align:center;&quot;&gt;Workshop&amp;lt;A extends Car&amp;gt;&lt;/p&gt;&lt;hr size=&quot;1&quot;&gt;&lt;p style=&quot;margin:0px;margin-left:4px;&quot;&gt;&lt;span style=&quot;background-color: initial;&quot;&gt;- loadedCars: ArrayList&amp;lt;A&amp;gt;&lt;/span&gt;&lt;br&gt;&lt;/p&gt;&lt;p style=&quot;margin:0px;margin-left:4px;&quot;&gt;- maxLoad: int&lt;/p&gt;&lt;p style=&quot;margin:0px;margin-left:4px;&quot;&gt;- x: int&lt;/p&gt;&lt;p style=&quot;margin:0px;margin-left:4px;&quot;&gt;- y: int&lt;/p&gt;&lt;p style=&quot;margin:0px;margin-left:4px;&quot;&gt;- name&lt;/p&gt;&lt;hr size=&quot;1&quot;&gt;&lt;p style=&quot;margin:0px;margin-left:4px;&quot;&gt;+ loadCar: void&lt;br style=&quot;border-color: var(--border-color);&quot;&gt;+ unloadCar: A&amp;nbsp;&lt;br&gt;&lt;/p&gt;&lt;p style=&quot;margin:0px;margin-left:4px;&quot;&gt;+ getLoadedCars:&amp;nbsp;ArrayList&amp;lt;A&amp;gt;&lt;/p&gt;&lt;p style=&quot;margin:0px;margin-left:4px;&quot;&gt;+ getX: int&lt;/p&gt;&lt;p style=&quot;margin:0px;margin-left:4px;&quot;&gt;+ getY: int&amp;nbsp;&lt;/p&gt;&lt;p style=&quot;border-color: var(--border-color); margin: 0px 0px 0px 4px;&quot;&gt;&lt;br style=&quot;border-color: var(--border-color);&quot;&gt;&lt;/p&gt;" style="verticalAlign=top;align=left;overflow=fill;fontSize=12;fontFamily=Helvetica;html=1;rounded=0;shadow=0;comic=0;labelBackgroundColor=none;strokeWidth=1" vertex="1" parent="1">
          <mxGeometry x="797.5" y="355" width="190" height="195" as="geometry" />
        </mxCell>
        <mxCell id="BovTCXZvYHQh8eO-tCcy-8" value="&lt;p style=&quot;margin:0px;margin-top:4px;text-align:center;&quot;&gt;CarController&lt;/p&gt;&lt;hr&gt;~ model : CarModel&lt;br&gt;&lt;hr size=&quot;1&quot;&gt;&lt;p style=&quot;margin:0px;margin-left:4px;&quot;&gt;&lt;/p&gt;&lt;p style=&quot;margin:0px;margin-left:4px;&quot;&gt;+ stopAllCars: void&lt;/p&gt;&lt;p style=&quot;margin:0px;margin-left:4px;&quot;&gt;+ startAllCars: void&lt;/p&gt;&lt;p style=&quot;margin:0px;margin-left:4px;&quot;&gt;+ raiseTruckBed: void&lt;/p&gt;&lt;p style=&quot;margin:0px;margin-left:4px;&quot;&gt;+ lowerTruckBed: void&lt;/p&gt;&lt;p style=&quot;margin:0px;margin-left:4px;&quot;&gt;+ gas: void&lt;/p&gt;&lt;p style=&quot;margin:0px;margin-left:4px;&quot;&gt;+ brake: void&lt;/p&gt;&lt;p style=&quot;margin:0px;margin-left:4px;&quot;&gt;+ turboOn: void&lt;/p&gt;&lt;p style=&quot;margin:0px;margin-left:4px;&quot;&gt;+ turboOff: void&lt;/p&gt;&lt;p style=&quot;margin:0px;margin-left:4px;&quot;&gt;&lt;br&gt;&lt;/p&gt;" style="verticalAlign=top;align=left;overflow=fill;fontSize=12;fontFamily=Helvetica;html=1;rounded=0;shadow=0;comic=0;labelBackgroundColor=none;strokeWidth=1" vertex="1" parent="1">
          <mxGeometry x="827.5" y="30" width="235" height="180" as="geometry" />
        </mxCell>
        <mxCell id="BovTCXZvYHQh8eO-tCcy-9" value="&lt;p style=&quot;margin:0px;margin-top:4px;text-align:center;&quot;&gt;CarView&lt;/p&gt;&lt;hr size=&quot;1&quot;&gt;~ frame: DrawPanel&lt;br&gt;~&amp;nbsp; viewListener: ViewListener&lt;br&gt;&lt;p style=&quot;margin:0px;margin-left:4px;&quot;&gt;&lt;u&gt;&lt;span style=&quot;background-color: initial;&quot;&gt;- X: int&lt;/span&gt;&lt;br&gt;&lt;/u&gt;&lt;/p&gt;&lt;p style=&quot;margin:0px;margin-left:4px;&quot;&gt;&lt;u&gt;- Y: in&lt;/u&gt;t&lt;/p&gt;&lt;p style=&quot;margin:0px;margin-left:4px;&quot;&gt;~ model : CarModel&lt;/p&gt;&lt;hr size=&quot;1&quot;&gt;&lt;p style=&quot;margin:0px;margin-left:4px;&quot;&gt;- initComponents(String): void&amp;nbsp;&lt;br&gt;&lt;/p&gt;&lt;p style=&quot;margin:0px;margin-left:4px;&quot;&gt;+ CarView(String, ViewListener,&amp;nbsp;&lt;/p&gt;&lt;p style=&quot;margin:0px;margin-left:4px;&quot;&gt;&lt;br&gt;&lt;/p&gt;" style="verticalAlign=top;align=left;overflow=fill;fontSize=12;fontFamily=Helvetica;html=1;rounded=0;shadow=0;comic=0;labelBackgroundColor=none;strokeWidth=1" vertex="1" parent="1">
          <mxGeometry x="1260" y="-400" width="190" height="150" as="geometry" />
        </mxCell>
        <mxCell id="BovTCXZvYHQh8eO-tCcy-10" value="&lt;p style=&quot;margin:0px;margin-top:4px;text-align:center;&quot;&gt;DrawPanel&lt;/p&gt;&lt;hr size=&quot;1&quot;&gt;&lt;p style=&quot;margin:0px;margin-left:4px;&quot;&gt;&lt;/p&gt;~ model : CarModel&lt;br&gt;&lt;hr size=&quot;1&quot;&gt;&lt;p style=&quot;margin:0px;margin-left:4px;&quot;&gt;&lt;span style=&quot;background-color: initial;&quot;&gt;+ update: void&lt;/span&gt;&lt;br&gt;&lt;/p&gt;&lt;p style=&quot;margin:0px;margin-left:4px;&quot;&gt;&lt;span style=&quot;background-color: initial;&quot;&gt;# paintComponent(Graphics):&amp;nbsp; void&lt;/span&gt;&lt;br&gt;&lt;/p&gt;&lt;p style=&quot;margin:0px;margin-left:4px;&quot;&gt;+ drawPanel(int, int, ArrayList&amp;lt;Car&amp;gt;, ArrayList&lt;/p&gt;&lt;p style=&quot;margin:0px;margin-left:4px;&quot;&gt;&amp;lt;Workshop&amp;lt;Volvo240&amp;gt;&amp;gt;)&amp;nbsp;&lt;/p&gt;&lt;p style=&quot;margin:0px;margin-left:4px;&quot;&gt;&lt;br&gt;&lt;/p&gt;" style="verticalAlign=top;align=left;overflow=fill;fontSize=12;fontFamily=Helvetica;html=1;rounded=0;shadow=0;comic=0;labelBackgroundColor=none;strokeWidth=1" vertex="1" parent="1">
          <mxGeometry x="1220" y="82.5" width="288" height="127.5" as="geometry" />
        </mxCell>
        <mxCell id="BovTCXZvYHQh8eO-tCcy-11" value="" style="endArrow=classic;html=1;rounded=0;strokeWidth=2;entryX=0.148;entryY=1.005;entryDx=0;entryDy=0;entryPerimeter=0;exitX=0.25;exitY=0;exitDx=0;exitDy=0;" edge="1" parent="1" source="BovTCXZvYHQh8eO-tCcy-2" target="5d2195bd80daf111-18">
          <mxGeometry width="50" height="50" relative="1" as="geometry">
            <mxPoint x="80" y="210" as="sourcePoint" />
            <mxPoint x="250" y="640" as="targetPoint" />
          </mxGeometry>
        </mxCell>
        <mxCell id="BovTCXZvYHQh8eO-tCcy-12" value="" style="endArrow=classic;html=1;rounded=0;strokeWidth=2;" edge="1" parent="1" source="BovTCXZvYHQh8eO-tCcy-4" target="5d2195bd80daf111-18">
          <mxGeometry width="50" height="50" relative="1" as="geometry">
            <mxPoint x="465" y="260" as="sourcePoint" />
            <mxPoint x="420" y="210" as="targetPoint" />
          </mxGeometry>
        </mxCell>
        <mxCell id="BovTCXZvYHQh8eO-tCcy-13" value="" style="endArrow=classic;html=1;rounded=0;strokeWidth=2;exitX=0.25;exitY=0;exitDx=0;exitDy=0;" edge="1" parent="1" source="BovTCXZvYHQh8eO-tCcy-3" target="5d2195bd80daf111-18">
          <mxGeometry width="50" height="50" relative="1" as="geometry">
            <mxPoint x="250" y="240" as="sourcePoint" />
            <mxPoint x="912.5" y="210" as="targetPoint" />
          </mxGeometry>
        </mxCell>
        <mxCell id="BovTCXZvYHQh8eO-tCcy-14" value="" style="endArrow=classic;html=1;rounded=0;strokeWidth=2;" edge="1" parent="1" source="BovTCXZvYHQh8eO-tCcy-6" target="BovTCXZvYHQh8eO-tCcy-4">
          <mxGeometry width="50" height="50" relative="1" as="geometry">
            <mxPoint x="465" y="400" as="sourcePoint" />
            <mxPoint x="620" y="641" as="targetPoint" />
          </mxGeometry>
        </mxCell>
        <mxCell id="BovTCXZvYHQh8eO-tCcy-17" value="" style="endArrow=classic;html=1;rounded=0;strokeWidth=2;entryX=-0.005;entryY=0.845;entryDx=0;entryDy=0;entryPerimeter=0;exitX=1;exitY=0;exitDx=0;exitDy=0;" edge="1" parent="1" source="BovTCXZvYHQh8eO-tCcy-5" target="BovTCXZvYHQh8eO-tCcy-4">
          <mxGeometry width="50" height="50" relative="1" as="geometry">
            <mxPoint x="480" y="620" as="sourcePoint" />
            <mxPoint x="420" y="650" as="targetPoint" />
          </mxGeometry>
        </mxCell>
        <mxCell id="G6mhSTr2Yplr3GK2UGKa-1" value="&lt;p style=&quot;margin:0px;margin-top:4px;text-align:center;&quot;&gt;Platform&lt;/p&gt;&lt;hr size=&quot;1&quot;&gt;&lt;p style=&quot;margin:0px;margin-left:4px;&quot;&gt;+ active: boolean&lt;br&gt;&lt;/p&gt;&lt;hr size=&quot;1&quot;&gt;&lt;p style=&quot;border-color: var(--border-color); margin: 0px 0px 0px 4px;&quot;&gt;+&amp;nbsp;&lt;span style=&quot;border-color: var(--border-color);&quot;&gt;&lt;i&gt;lowerPlatform&lt;/i&gt;&lt;/span&gt;: void&lt;br style=&quot;border-color: var(--border-color);&quot;&gt;&lt;/p&gt;&lt;p style=&quot;border-color: var(--border-color); margin: 0px 0px 0px 4px;&quot;&gt;+&amp;nbsp;&lt;i style=&quot;border-color: var(--border-color);&quot;&gt;raisePlatform&lt;/i&gt;: void&lt;/p&gt;" style="verticalAlign=top;align=left;overflow=fill;fontSize=12;fontFamily=Helvetica;html=1;rounded=0;shadow=0;comic=0;labelBackgroundColor=none;strokeWidth=1" vertex="1" parent="1">
          <mxGeometry x="292.5" y="980" width="190" height="100" as="geometry" />
        </mxCell>
        <mxCell id="G6mhSTr2Yplr3GK2UGKa-2" value="&lt;p style=&quot;margin:0px;margin-top:4px;text-align:center;&quot;&gt;CarPlatform&lt;/p&gt;&lt;hr size=&quot;1&quot;&gt;&lt;p style=&quot;margin:0px;margin-left:4px;&quot;&gt;+ active: boolean&lt;/p&gt;&lt;p style=&quot;margin:0px;margin-left:4px;&quot;&gt;&lt;br&gt;&lt;/p&gt;&lt;hr size=&quot;1&quot;&gt;&lt;p style=&quot;border-color: var(--border-color); margin: 0px 0px 0px 4px;&quot;&gt;+&amp;nbsp;&lt;i style=&quot;border-color: var(--border-color);&quot;&gt;lowerPlatform&lt;/i&gt;: void&lt;br style=&quot;border-color: var(--border-color);&quot;&gt;&lt;/p&gt;&lt;p style=&quot;border-color: var(--border-color); margin: 0px 0px 0px 4px;&quot;&gt;+&amp;nbsp;&lt;i style=&quot;border-color: var(--border-color);&quot;&gt;raisePlatform&lt;/i&gt;: void&lt;/p&gt;&lt;p style=&quot;border-color: var(--border-color); margin: 0px 0px 0px 4px;&quot;&gt;&lt;br&gt;&lt;/p&gt;" style="verticalAlign=top;align=left;overflow=fill;fontSize=12;fontFamily=Helvetica;html=1;rounded=0;shadow=0;comic=0;labelBackgroundColor=none;strokeWidth=1" vertex="1" parent="1">
          <mxGeometry x="535" y="870" width="220" height="110" as="geometry" />
        </mxCell>
        <mxCell id="o4XyJDZ6yWFGgHwKhnjA-1" value="" style="endArrow=classic;html=1;rounded=0;strokeWidth=2;exitX=0;exitY=0.5;exitDx=0;exitDy=0;" edge="1" parent="1" source="G6mhSTr2Yplr3GK2UGKa-2" target="G6mhSTr2Yplr3GK2UGKa-1">
          <mxGeometry width="50" height="50" relative="1" as="geometry">
            <mxPoint x="250" y="810" as="sourcePoint" />
            <mxPoint x="670" y="1030" as="targetPoint" />
          </mxGeometry>
        </mxCell>
        <mxCell id="o4XyJDZ6yWFGgHwKhnjA-2" value="" style="endArrow=classic;html=1;rounded=0;strokeWidth=2;exitX=0.5;exitY=1;exitDx=0;exitDy=0;entryX=0.45;entryY=0.027;entryDx=0;entryDy=0;entryPerimeter=0;" edge="1" parent="1" source="G6mhSTr2Yplr3GK2UGKa-3" target="G6mhSTr2Yplr3GK2UGKa-1">
          <mxGeometry width="50" height="50" relative="1" as="geometry">
            <mxPoint x="160" y="760" as="sourcePoint" />
            <mxPoint x="390" y="940" as="targetPoint" />
          </mxGeometry>
        </mxCell>
        <mxCell id="o4XyJDZ6yWFGgHwKhnjA-6" value="&lt;p style=&quot;margin:0px;margin-top:4px;text-align:center;&quot;&gt;JFrame&lt;/p&gt;" style="verticalAlign=top;align=left;overflow=fill;fontSize=12;fontFamily=Helvetica;html=1;rounded=0;shadow=0;comic=0;labelBackgroundColor=none;strokeWidth=1" vertex="1" parent="1">
          <mxGeometry x="1334" y="370" width="60" height="20" as="geometry" />
        </mxCell>
        <mxCell id="o4XyJDZ6yWFGgHwKhnjA-7" value="&lt;p style=&quot;margin:0px;margin-top:4px;text-align:center;&quot;&gt;JPanel&lt;/p&gt;" style="verticalAlign=top;align=left;overflow=fill;fontSize=12;fontFamily=Helvetica;html=1;rounded=0;shadow=0;comic=0;labelBackgroundColor=none;strokeWidth=1" vertex="1" parent="1">
          <mxGeometry x="1340" y="-520" width="70" height="20" as="geometry" />
        </mxCell>
        <mxCell id="72isT-ChlWh-lRHcJfzr-1" value="&lt;p style=&quot;margin:0px;margin-top:4px;text-align:center;&quot;&gt;JButton&lt;/p&gt;" style="verticalAlign=top;align=left;overflow=fill;fontSize=12;fontFamily=Helvetica;html=1;rounded=0;shadow=0;comic=0;labelBackgroundColor=none;strokeWidth=1" vertex="1" parent="1">
          <mxGeometry x="1755" y="-570" width="70" height="20" as="geometry" />
        </mxCell>
        <mxCell id="72isT-ChlWh-lRHcJfzr-3" value="&lt;p style=&quot;margin:0px;margin-top:4px;text-align:center;&quot;&gt;JLabel&lt;/p&gt;" style="verticalAlign=top;align=left;overflow=fill;fontSize=12;fontFamily=Helvetica;html=1;rounded=0;shadow=0;comic=0;labelBackgroundColor=none;strokeWidth=1" vertex="1" parent="1">
          <mxGeometry x="1840" y="-570" width="70" height="20" as="geometry" />
        </mxCell>
        <mxCell id="72isT-ChlWh-lRHcJfzr-6" value="&lt;p style=&quot;margin:0px;margin-top:4px;text-align:center;&quot;&gt;JSpinner&lt;/p&gt;" style="verticalAlign=top;align=left;overflow=fill;fontSize=12;fontFamily=Helvetica;html=1;rounded=0;shadow=0;comic=0;labelBackgroundColor=none;strokeWidth=1" vertex="1" parent="1">
          <mxGeometry x="1665" y="-570" width="70" height="20" as="geometry" />
        </mxCell>
        <mxCell id="G6mhSTr2Yplr3GK2UGKa-3" value="&lt;p style=&quot;margin:0px;margin-top:4px;text-align:center;&quot;&gt;TruckPlatform&lt;/p&gt;&lt;hr size=&quot;1&quot;&gt;&lt;p style=&quot;margin:0px;margin-left:4px;&quot;&gt;+ active: boolean&lt;/p&gt;&lt;p style=&quot;margin:0px;margin-left:4px;&quot;&gt;- platformAngle: int&lt;/p&gt;&lt;p style=&quot;margin:0px;margin-left:4px;&quot;&gt;- maxAngle: int&lt;/p&gt;&lt;p style=&quot;margin:0px;margin-left:4px;&quot;&gt;- platformraiseAngle: int&lt;/p&gt;&lt;hr size=&quot;1&quot;&gt;&lt;p style=&quot;border-color: var(--border-color); margin: 0px 0px 0px 4px;&quot;&gt;+&amp;nbsp;&lt;i style=&quot;border-color: var(--border-color);&quot;&gt;lowerPlatform&lt;/i&gt;: void&lt;br style=&quot;border-color: var(--border-color);&quot;&gt;&lt;/p&gt;&lt;p style=&quot;border-color: var(--border-color); margin: 0px 0px 0px 4px;&quot;&gt;+&amp;nbsp;&lt;i style=&quot;border-color: var(--border-color);&quot;&gt;raisePlatform&lt;/i&gt;: void&lt;/p&gt;" style="verticalAlign=top;align=left;overflow=fill;fontSize=12;fontFamily=Helvetica;html=1;rounded=0;shadow=0;comic=0;labelBackgroundColor=none;strokeWidth=1" vertex="1" parent="1">
          <mxGeometry x="280" y="785" width="190" height="135" as="geometry" />
        </mxCell>
        <mxCell id="o4XyJDZ6yWFGgHwKhnjA-25" value="" style="endArrow=open;html=1;rounded=0;endFill=0;strokeColor=#6c8ebf;strokeWidth=2;edgeStyle=orthogonalEdgeStyle;fillColor=#dae8fc;exitX=0.008;exitY=0.625;exitDx=0;exitDy=0;exitPerimeter=0;" edge="1" parent="1" source="DqQGBqvitNwA1HLZi4oD-2" target="BovTCXZvYHQh8eO-tCcy-3">
          <mxGeometry width="50" height="50" relative="1" as="geometry">
            <mxPoint x="680" y="205" as="sourcePoint" />
            <mxPoint x="370" y="270" as="targetPoint" />
            <Array as="points">
              <mxPoint x="370" y="-128" />
            </Array>
          </mxGeometry>
        </mxCell>
        <mxCell id="o4XyJDZ6yWFGgHwKhnjA-26" value="" style="endArrow=open;html=1;rounded=0;endFill=0;strokeColor=#6c8ebf;strokeWidth=2;edgeStyle=orthogonalEdgeStyle;fillColor=#dae8fc;" edge="1" parent="1" target="BovTCXZvYHQh8eO-tCcy-2">
          <mxGeometry width="50" height="50" relative="1" as="geometry">
            <mxPoint x="370" y="260" as="sourcePoint" />
            <mxPoint x="130" y="260" as="targetPoint" />
          </mxGeometry>
        </mxCell>
        <mxCell id="o4XyJDZ6yWFGgHwKhnjA-29" value="" style="endArrow=open;html=1;rounded=0;endFill=0;strokeColor=#6c8ebf;strokeWidth=2;fillColor=#dae8fc;" edge="1" parent="1">
          <mxGeometry width="50" height="50" relative="1" as="geometry">
            <mxPoint x="1300" y="854.29" as="sourcePoint" />
            <mxPoint x="1360" y="854.29" as="targetPoint" />
          </mxGeometry>
        </mxCell>
        <mxCell id="o4XyJDZ6yWFGgHwKhnjA-30" value="Has-A" style="html=1;whiteSpace=wrap;" vertex="1" parent="1">
          <mxGeometry x="1275" y="870" width="110" height="50" as="geometry" />
        </mxCell>
        <mxCell id="o4XyJDZ6yWFGgHwKhnjA-31" value="" style="endArrow=classic;html=1;rounded=0;strokeWidth=2;" edge="1" parent="1">
          <mxGeometry width="50" height="50" relative="1" as="geometry">
            <mxPoint x="1295" y="750" as="sourcePoint" />
            <mxPoint x="1365" y="750" as="targetPoint" />
          </mxGeometry>
        </mxCell>
        <mxCell id="o4XyJDZ6yWFGgHwKhnjA-32" value="Is-A" style="html=1;whiteSpace=wrap;" vertex="1" parent="1">
          <mxGeometry x="1275" y="770" width="110" height="50" as="geometry" />
        </mxCell>
        <mxCell id="o4XyJDZ6yWFGgHwKhnjA-33" value="" style="endArrow=block;dashed=1;endFill=0;endSize=12;html=1;rounded=0;fillColor=#f8cecc;strokeColor=#b85450;strokeWidth=2;" edge="1" parent="1">
          <mxGeometry width="160" relative="1" as="geometry">
            <mxPoint x="1290" y="640" as="sourcePoint" />
            <mxPoint x="1380" y="640" as="targetPoint" />
          </mxGeometry>
        </mxCell>
        <mxCell id="o4XyJDZ6yWFGgHwKhnjA-34" value="&lt;font style=&quot;font-size: 11px;&quot;&gt;Usage &amp;nbsp;Dependency&lt;/font&gt;" style="html=1;whiteSpace=wrap;" vertex="1" parent="1">
          <mxGeometry x="1275" y="670" width="110" height="50" as="geometry" />
        </mxCell>
        <mxCell id="o4XyJDZ6yWFGgHwKhnjA-35" value="" style="endArrow=open;html=1;rounded=0;endFill=0;dashed=1;strokeColor=#82b366;strokeWidth=2;fillColor=#d5e8d4;exitX=0.992;exitY=0.179;exitDx=0;exitDy=0;exitPerimeter=0;" edge="1" parent="1" source="5d2195bd80daf111-18" target="5d2195bd80daf111-19">
          <mxGeometry width="50" height="50" relative="1" as="geometry">
            <mxPoint x="820" y="227.5" as="sourcePoint" />
            <mxPoint x="329" y="-124.5" as="targetPoint" />
          </mxGeometry>
        </mxCell>
        <mxCell id="o4XyJDZ6yWFGgHwKhnjA-36" value="" style="endArrow=open;html=1;rounded=0;endFill=0;dashed=1;strokeColor=#82b366;strokeWidth=2;fillColor=#d5e8d4;exitX=0.992;exitY=0.179;exitDx=0;exitDy=0;exitPerimeter=0;" edge="1" parent="1">
          <mxGeometry width="50" height="50" relative="1" as="geometry">
            <mxPoint x="1282.5" y="540" as="sourcePoint" />
            <mxPoint x="1377.5" y="540" as="targetPoint" />
          </mxGeometry>
        </mxCell>
        <mxCell id="o4XyJDZ6yWFGgHwKhnjA-37" value="Implements" style="html=1;whiteSpace=wrap;" vertex="1" parent="1">
          <mxGeometry x="1275" y="560" width="110" height="50" as="geometry" />
        </mxCell>
        <mxCell id="o4XyJDZ6yWFGgHwKhnjA-38" value="" style="endArrow=block;dashed=1;endFill=0;endSize=12;html=1;rounded=0;entryX=0;entryY=0;entryDx=0;entryDy=0;fillColor=#f8cecc;strokeColor=#b85450;strokeWidth=2;exitX=1;exitY=0.5;exitDx=0;exitDy=0;" edge="1" parent="1" source="5d2195bd80daf111-18" target="BovTCXZvYHQh8eO-tCcy-7">
          <mxGeometry width="160" relative="1" as="geometry">
            <mxPoint x="839" y="870" as="sourcePoint" />
            <mxPoint x="1028" y="720" as="targetPoint" />
          </mxGeometry>
        </mxCell>
        <mxCell id="o4XyJDZ6yWFGgHwKhnjA-39" value="" style="endArrow=open;html=1;rounded=0;endFill=0;strokeColor=#6c8ebf;strokeWidth=2;fillColor=#dae8fc;" edge="1" parent="1">
          <mxGeometry width="50" height="50" relative="1" as="geometry">
            <mxPoint x="260" y="260" as="sourcePoint" />
            <mxPoint x="260" y="610" as="targetPoint" />
          </mxGeometry>
        </mxCell>
        <mxCell id="-6VpxjwCAlyPcV6hgzdp-3" value="" style="endArrow=open;html=1;rounded=0;endFill=0;strokeColor=#6c8ebf;strokeWidth=2;fillColor=#dae8fc;exitX=0.5;exitY=1;exitDx=0;exitDy=0;entryX=0;entryY=0.5;entryDx=0;entryDy=0;" edge="1" parent="1" source="BovTCXZvYHQh8eO-tCcy-5" target="G6mhSTr2Yplr3GK2UGKa-3">
          <mxGeometry width="50" height="50" relative="1" as="geometry">
            <mxPoint x="250" y="794.5" as="sourcePoint" />
            <mxPoint x="310" y="794.5" as="targetPoint" />
          </mxGeometry>
        </mxCell>
        <mxCell id="o4XyJDZ6yWFGgHwKhnjA-40" value="" style="endArrow=open;html=1;rounded=0;endFill=0;strokeColor=#6c8ebf;strokeWidth=2;fillColor=#dae8fc;exitX=0.5;exitY=1;exitDx=0;exitDy=0;entryX=0.5;entryY=0;entryDx=0;entryDy=0;" edge="1" parent="1" source="BovTCXZvYHQh8eO-tCcy-6" target="G6mhSTr2Yplr3GK2UGKa-2">
          <mxGeometry width="50" height="50" relative="1" as="geometry">
            <mxPoint x="210" y="770" as="sourcePoint" />
            <mxPoint x="380" y="858" as="targetPoint" />
          </mxGeometry>
        </mxCell>
        <mxCell id="o4XyJDZ6yWFGgHwKhnjA-41" value="" style="endArrow=open;html=1;rounded=0;endFill=0;dashed=1;strokeColor=#82b366;strokeWidth=2;fillColor=#d5e8d4;exitX=0.79;exitY=1.003;exitDx=0;exitDy=0;entryX=0.5;entryY=0;entryDx=0;entryDy=0;exitPerimeter=0;" edge="1" parent="1" source="BovTCXZvYHQh8eO-tCcy-7" target="5d2195bd80daf111-15">
          <mxGeometry width="50" height="50" relative="1" as="geometry">
            <mxPoint x="1107.5" y="549" as="sourcePoint" />
            <mxPoint x="1202.5" y="549" as="targetPoint" />
          </mxGeometry>
        </mxCell>
        <mxCell id="o4XyJDZ6yWFGgHwKhnjA-42" value="" style="endArrow=open;html=1;rounded=0;endFill=0;dashed=1;strokeColor=#82b366;strokeWidth=2;fillColor=#d5e8d4;entryX=0;entryY=0.5;entryDx=0;entryDy=0;" edge="1" parent="1" source="BovTCXZvYHQh8eO-tCcy-6" target="5d2195bd80daf111-15">
          <mxGeometry width="50" height="50" relative="1" as="geometry">
            <mxPoint x="1292.5" y="550" as="sourcePoint" />
            <mxPoint x="1387.5" y="550" as="targetPoint" />
          </mxGeometry>
        </mxCell>
        <mxCell id="o4XyJDZ6yWFGgHwKhnjA-45" value="" style="endArrow=classic;html=1;rounded=0;strokeWidth=2;exitX=0.5;exitY=1;exitDx=0;exitDy=0;" edge="1" parent="1" source="BovTCXZvYHQh8eO-tCcy-10">
          <mxGeometry width="50" height="50" relative="1" as="geometry">
            <mxPoint x="1449" y="160" as="sourcePoint" />
            <mxPoint x="1364" y="370" as="targetPoint" />
          </mxGeometry>
        </mxCell>
        <mxCell id="o4XyJDZ6yWFGgHwKhnjA-46" value="&lt;p style=&quot;margin:0px;margin-top:4px;text-align:center;&quot;&gt;BufferedImage&lt;/p&gt;&lt;p style=&quot;margin:0px;margin-top:4px;text-align:center;&quot;&gt;&lt;br&gt;&lt;/p&gt;" style="verticalAlign=top;align=left;overflow=fill;fontSize=12;fontFamily=Helvetica;html=1;rounded=0;shadow=0;comic=0;labelBackgroundColor=none;strokeWidth=1" vertex="1" parent="1">
          <mxGeometry x="1570" y="140" width="100" height="20" as="geometry" />
        </mxCell>
        <mxCell id="o4XyJDZ6yWFGgHwKhnjA-47" value="" style="endArrow=block;dashed=1;endFill=0;endSize=12;html=1;rounded=0;fillColor=#f8cecc;strokeColor=#b85450;strokeWidth=2;entryX=0;entryY=0.5;entryDx=0;entryDy=0;" edge="1" parent="1" source="BovTCXZvYHQh8eO-tCcy-10" target="o4XyJDZ6yWFGgHwKhnjA-46">
          <mxGeometry width="160" relative="1" as="geometry">
            <mxPoint x="1560" y="120" as="sourcePoint" />
            <mxPoint x="1570" y="-37" as="targetPoint" />
          </mxGeometry>
        </mxCell>
        <mxCell id="DqQGBqvitNwA1HLZi4oD-2" value="&lt;p style=&quot;margin:0px;margin-top:4px;text-align:center;&quot;&gt;Factory&lt;/p&gt;&lt;hr size=&quot;1&quot;&gt;&lt;p style=&quot;margin:0px;margin-left:4px;&quot;&gt;&lt;span style=&quot;background-color: initial;&quot;&gt;+createVolvo: Volvo240&lt;/span&gt;&lt;/p&gt;&lt;p style=&quot;margin:0px;margin-left:4px;&quot;&gt;&lt;span style=&quot;background-color: initial;&quot;&gt;+createSaab: Saab95&lt;/span&gt;&lt;/p&gt;&lt;p style=&quot;margin:0px;margin-left:4px;&quot;&gt;&lt;span style=&quot;background-color: initial;&quot;&gt;+createWorkshop: Workshop&lt;/span&gt;&lt;/p&gt;" style="verticalAlign=top;align=left;overflow=fill;fontSize=12;fontFamily=Helvetica;html=1;rounded=0;shadow=0;comic=0;labelBackgroundColor=none;strokeWidth=1" vertex="1" parent="1">
          <mxGeometry x="440" y="-270" width="235" height="93" as="geometry" />
        </mxCell>
        <mxCell id="DqQGBqvitNwA1HLZi4oD-5" value="&lt;p style=&quot;margin:0px;margin-top:4px;text-align:center;&quot;&gt;CarModel&lt;/p&gt;&lt;p style=&quot;margin:0px;margin-top:4px;text-align:center;&quot;&gt;+ : carImageMap :HashMap&amp;lt;Car, BufferedImage&amp;gt;&lt;/p&gt;&lt;p style=&quot;border-color: var(--border-color); margin: 0px 0px 0px 4px;&quot;&gt;&lt;span style=&quot;background-color: initial;&quot;&gt;+: workShopImage : HashMap&amp;lt;Car, BufferedImage&amp;gt;&lt;/span&gt;&lt;br&gt;&lt;/p&gt;&lt;p style=&quot;border-color: var(--border-color); margin: 0px 0px 0px 4px;&quot;&gt;&lt;span style=&quot;background-color: initial;&quot;&gt;-: delay : int&lt;/span&gt;&lt;/p&gt;&lt;p style=&quot;border-color: var(--border-color); margin: 0px 0px 0px 4px;&quot;&gt;~ observerList : ArrayList &amp;lt;ModelListener&amp;gt;&lt;span style=&quot;background-color: initial;&quot;&gt;&lt;br&gt;&lt;/span&gt;&lt;/p&gt;&lt;p style=&quot;border-color: var(--border-color); margin: 0px 0px 0px 4px;&quot;&gt;~ timer: Timer&lt;br&gt;&lt;/p&gt;&lt;p style=&quot;border-color: var(--border-color); margin: 0px 0px 0px 4px;&quot;&gt;- Delay: int&amp;nbsp;&lt;br&gt;&lt;/p&gt;&lt;p style=&quot;border-color: var(--border-color); margin: 0px 0px 0px 4px;&quot;&gt;~ factory: CarFactory&lt;br&gt;&lt;/p&gt;&lt;hr&gt;+ cars: ArrayList&amp;lt;Car&amp;gt;&lt;br&gt;+ shops: ArrayList&amp;lt;Workshop&amp;lt;Volvo240&amp;gt;&amp;gt;&lt;br&gt;&lt;p style=&quot;border-color: var(--border-color); margin: 0px 0px 0px 4px;&quot;&gt;&lt;/p&gt;&amp;nbsp;&lt;span style=&quot;background-color: initial;&quot;&gt;+ loadCarImages: ArrayList&amp;lt;Car&amp;gt;&lt;/span&gt;&lt;br&gt;&lt;p style=&quot;border-color: var(--border-color); margin: 0px 0px 0px 4px;&quot;&gt;+&amp;nbsp;loadWorkshopImages: Arrraylist&amp;lt;Workshop&amp;gt;&lt;/p&gt;&lt;p style=&quot;border-color: var(--border-color); margin: 0px 0px 0px 4px;&quot;&gt;+ getRandomX : int&lt;/p&gt;&lt;p style=&quot;border-color: var(--border-color); margin: 0px 0px 0px 4px;&quot;&gt;+ getRandomY : int&lt;/p&gt;&lt;p style=&quot;border-color: var(--border-color); margin: 0px 0px 0px 4px;&quot;&gt;+ onAddcar (JComboBox&amp;lt;string&amp;gt;) : void&lt;/p&gt;&lt;p style=&quot;border-color: var(--border-color); margin: 0px 0px 0px 4px;&quot;&gt;+ onRemovecar : void&lt;/p&gt;&lt;p style=&quot;border-color: var(--border-color); margin: 0px 0px 0px 4px;&quot;&gt;+ addObserver (ModelListener) : void&lt;/p&gt;&lt;p style=&quot;border-color: var(--border-color); margin: 0px 0px 0px 4px;&quot;&gt;+ removeObserver (ModelListener) : void&lt;/p&gt;&lt;p style=&quot;border-color: var(--border-color); margin: 0px 0px 0px 4px;&quot;&gt;+ notifyObservers : void&lt;/p&gt;&lt;p style=&quot;margin:0px;margin-left:4px;&quot;&gt;&lt;/p&gt;" style="verticalAlign=top;align=left;overflow=fill;fontSize=12;fontFamily=Helvetica;html=1;rounded=0;shadow=0;comic=0;labelBackgroundColor=none;strokeWidth=1" vertex="1" parent="1">
          <mxGeometry x="886.25" y="-400" width="290" height="300" as="geometry" />
        </mxCell>
        <mxCell id="DqQGBqvitNwA1HLZi4oD-6" value="" style="endArrow=open;html=1;rounded=0;endFill=0;dashed=1;strokeColor=#82b366;strokeWidth=2;fillColor=#d5e8d4;exitX=0;exitY=0.5;exitDx=0;exitDy=0;entryX=1;entryY=0;entryDx=0;entryDy=0;" edge="1" parent="1" source="DqQGBqvitNwA1HLZi4oD-2" target="5d2195bd80daf111-18">
          <mxGeometry width="50" height="50" relative="1" as="geometry">
            <mxPoint x="468.95" y="-141" as="sourcePoint" />
            <mxPoint x="468.95" y="-87" as="targetPoint" />
          </mxGeometry>
        </mxCell>
        <mxCell id="tSkDn1wyvx8tVfVgZzTj-5" value="" style="endArrow=block;dashed=1;endFill=0;endSize=12;html=1;rounded=0;fillColor=#f8cecc;strokeColor=#b85450;strokeWidth=2;entryX=1;entryY=0.5;entryDx=0;entryDy=0;exitX=-0.015;exitY=0.592;exitDx=0;exitDy=0;exitPerimeter=0;" edge="1" parent="1" source="DqQGBqvitNwA1HLZi4oD-5" target="DqQGBqvitNwA1HLZi4oD-2">
          <mxGeometry width="160" relative="1" as="geometry">
            <mxPoint x="910" y="-230" as="sourcePoint" />
            <mxPoint x="1150" y="20" as="targetPoint" />
          </mxGeometry>
        </mxCell>
        <mxCell id="DqQGBqvitNwA1HLZi4oD-8" value="&lt;p style=&quot;margin:0px;margin-top:4px;text-align:center;&quot;&gt;ViewListener&lt;/p&gt;&lt;p style=&quot;margin:0px;margin-top:4px;text-align:center;&quot;&gt;&lt;i style=&quot;border-color: var(--border-color);&quot;&gt;&amp;lt;&amp;lt;Interface&amp;gt;&amp;gt;&lt;/i&gt;&lt;br&gt;&lt;/p&gt;&lt;hr size=&quot;1&quot;&gt;~&amp;nbsp;&lt;span style=&quot;background-color: initial;&quot;&gt;onTurboOn: void&lt;/span&gt;&lt;br&gt;~&amp;nbsp;&lt;span style=&quot;background-color: initial;&quot;&gt;onTurboOff: void&lt;/span&gt;&lt;br&gt;~&amp;nbsp;&lt;span style=&quot;background-color: initial;&quot;&gt;onGas: void&lt;/span&gt;&lt;br&gt;~&amp;nbsp;&lt;span style=&quot;background-color: initial;&quot;&gt;onBrake: void&lt;/span&gt;&lt;br&gt;~&amp;nbsp;&lt;span style=&quot;background-color: initial;&quot;&gt;onLiftBed: void&lt;/span&gt;&lt;br&gt;~&amp;nbsp;&lt;span style=&quot;background-color: initial;&quot;&gt;onLowerBed: void&lt;/span&gt;&lt;br&gt;~&amp;nbsp;&lt;span style=&quot;background-color: initial;&quot;&gt;onStartAllCars: void&lt;/span&gt;&lt;br&gt;~&amp;nbsp;&lt;span style=&quot;background-color: initial;&quot;&gt;onStopAllCars: void&lt;/span&gt;" style="verticalAlign=top;align=left;overflow=fill;fontSize=12;fontFamily=Helvetica;html=1;rounded=0;shadow=0;comic=0;labelBackgroundColor=none;strokeWidth=1" vertex="1" parent="1">
          <mxGeometry x="1695" y="-140" width="190" height="170" as="geometry" />
        </mxCell>
        <mxCell id="IhKOxY-cwk5jZRTICTOu-1" value="&lt;p style=&quot;margin:0px;margin-top:4px;text-align:center;&quot;&gt;TimerListener&lt;/p&gt;&lt;hr&gt;- modelListener : ModelListner&lt;br&gt;- model : CarModel&lt;br&gt;&lt;hr size=&quot;1&quot;&gt;&lt;p style=&quot;margin:0px;margin-left:4px;&quot;&gt;+ actionPerformed(ActionEvent): void&lt;/p&gt;&lt;p style=&quot;margin:0px;margin-left:4px;&quot;&gt;# VolvoShopCollision: void&lt;/p&gt;&lt;p style=&quot;margin:0px;margin-left:4px;&quot;&gt;+ moveIt: void&lt;/p&gt;&lt;p style=&quot;margin:0px;margin-left:4px;&quot;&gt;+ handelColision : void&lt;/p&gt;&lt;p style=&quot;margin:0px;margin-left:4px;&quot;&gt;+ checkWorkshopColision : void&lt;/p&gt;" style="verticalAlign=top;align=left;overflow=fill;fontSize=12;fontFamily=Helvetica;html=1;rounded=0;shadow=0;comic=0;labelBackgroundColor=none;strokeWidth=1" vertex="1" parent="1">
          <mxGeometry x="923.75" y="-617" width="215" height="157" as="geometry" />
        </mxCell>
        <mxCell id="hjahqjby427GPEr5TeGF-1" value="" style="endArrow=open;html=1;rounded=0;endFill=0;dashed=1;strokeColor=#82b366;strokeWidth=2;fillColor=#d5e8d4;exitX=1;exitY=0;exitDx=0;exitDy=0;" edge="1" parent="1" source="BovTCXZvYHQh8eO-tCcy-8">
          <mxGeometry width="50" height="50" relative="1" as="geometry">
            <mxPoint x="1040" y="80.95999999999998" as="sourcePoint" />
            <mxPoint x="1670" y="30" as="targetPoint" />
          </mxGeometry>
        </mxCell>
        <mxCell id="yxaKHNAZ0DlgktAPUHoR-9" value="&lt;p style=&quot;margin:0px;margin-top:4px;text-align:center;&quot;&gt;Widget&lt;/p&gt;&lt;hr size=&quot;1&quot;&gt;&lt;div&gt;&lt;p style=&quot;border-color: var(--border-color); margin: 0px 0px 0px 4px;&quot;&gt;~ gasLabel: JLabel&lt;br style=&quot;border-color: var(--border-color);&quot;&gt;&lt;/p&gt;&lt;p style=&quot;border-color: var(--border-color); margin: 0px 0px 0px 4px;&quot;&gt;&amp;nbsp;~ gasSpinner: JSpinner&lt;br style=&quot;border-color: var(--border-color);&quot;&gt;&lt;/p&gt;&lt;p style=&quot;border-color: var(--border-color); margin: 0px 0px 0px 4px;&quot;&gt;~&amp;nbsp; gasPanel: JPanel&lt;br style=&quot;border-color: var(--border-color);&quot;&gt;&lt;/p&gt;&amp;nbsp;~ gasButton: JButton&lt;br style=&quot;border-color: var(--border-color);&quot;&gt;~ turboOff: JButton&lt;br style=&quot;border-color: var(--border-color);&quot;&gt;~ turboOn: JButton&lt;br style=&quot;border-color: var(--border-color);&quot;&gt;~ liftBed: JButton&lt;br style=&quot;border-color: var(--border-color);&quot;&gt;~ lowerBed: JButton&lt;br style=&quot;border-color: var(--border-color);&quot;&gt;~ stopButton: JButton&lt;br style=&quot;border-color: var(--border-color);&quot;&gt;~startButton: JButton&lt;br style=&quot;border-color: var(--border-color);&quot;&gt;~ gasAmount: int&lt;br&gt;&lt;/div&gt;&lt;div&gt;- viewListener : ViewListener&lt;/div&gt;&lt;div&gt;- carTypeComboBox : JComboBox &amp;lt;String&amp;gt;&lt;/div&gt;&lt;div&gt;+ addComponent: void&lt;/div&gt;&lt;div&gt;+ returnComponent :void&lt;/div&gt;&lt;div&gt;&lt;br&gt;&lt;/div&gt;" style="verticalAlign=top;align=left;overflow=fill;fontSize=12;fontFamily=Helvetica;html=1;rounded=0;shadow=0;comic=0;labelBackgroundColor=none;strokeWidth=1" vertex="1" parent="1">
          <mxGeometry x="1670" y="-455" width="240" height="260" as="geometry" />
        </mxCell>
        <mxCell id="yxaKHNAZ0DlgktAPUHoR-12" value="" style="endArrow=open;html=1;rounded=0;endFill=0;strokeColor=#6c8ebf;strokeWidth=2;entryX=0.5;entryY=1;entryDx=0;entryDy=0;fillColor=#dae8fc;exitX=0.5;exitY=0;exitDx=0;exitDy=0;" edge="1" parent="1" source="yxaKHNAZ0DlgktAPUHoR-9" target="72isT-ChlWh-lRHcJfzr-6">
          <mxGeometry width="50" height="50" relative="1" as="geometry">
            <mxPoint x="1680" y="-457" as="sourcePoint" />
            <mxPoint x="1938" y="-610" as="targetPoint" />
          </mxGeometry>
        </mxCell>
        <mxCell id="yxaKHNAZ0DlgktAPUHoR-13" value="" style="endArrow=open;html=1;rounded=0;endFill=0;strokeColor=#6c8ebf;strokeWidth=2;entryX=0.5;entryY=1;entryDx=0;entryDy=0;fillColor=#dae8fc;" edge="1" parent="1" target="72isT-ChlWh-lRHcJfzr-1">
          <mxGeometry width="50" height="50" relative="1" as="geometry">
            <mxPoint x="1790" y="-450" as="sourcePoint" />
            <mxPoint x="1770" y="-550" as="targetPoint" />
          </mxGeometry>
        </mxCell>
        <mxCell id="yxaKHNAZ0DlgktAPUHoR-14" value="" style="endArrow=open;html=1;rounded=0;endFill=0;strokeColor=#6c8ebf;strokeWidth=2;entryX=0.5;entryY=1;entryDx=0;entryDy=0;fillColor=#dae8fc;exitX=0.5;exitY=0;exitDx=0;exitDy=0;" edge="1" parent="1" source="yxaKHNAZ0DlgktAPUHoR-9">
          <mxGeometry width="50" height="50" relative="1" as="geometry">
            <mxPoint x="1863.5" y="-460" as="sourcePoint" />
            <mxPoint x="1861.5" y="-550" as="targetPoint" />
          </mxGeometry>
        </mxCell>
        <mxCell id="yxaKHNAZ0DlgktAPUHoR-15" value="" style="endArrow=block;dashed=1;endFill=0;endSize=12;html=1;rounded=0;fillColor=#f8cecc;strokeColor=#b85450;strokeWidth=2;exitX=0.5;exitY=1;exitDx=0;exitDy=0;" edge="1" parent="1" target="DqQGBqvitNwA1HLZi4oD-8" source="yxaKHNAZ0DlgktAPUHoR-9">
          <mxGeometry width="160" relative="1" as="geometry">
            <mxPoint x="1770" y="-260" as="sourcePoint" />
            <mxPoint x="1932" y="-300" as="targetPoint" />
          </mxGeometry>
        </mxCell>
        <mxCell id="yxaKHNAZ0DlgktAPUHoR-30" value="" style="endArrow=block;dashed=1;endFill=0;endSize=12;html=1;rounded=0;fillColor=#f8cecc;strokeColor=#b85450;strokeWidth=2;exitX=0.862;exitY=-0.035;exitDx=0;exitDy=0;exitPerimeter=0;entryX=0.5;entryY=1;entryDx=0;entryDy=0;" edge="1" parent="1" source="BovTCXZvYHQh8eO-tCcy-8" target="DqQGBqvitNwA1HLZi4oD-5">
          <mxGeometry width="160" relative="1" as="geometry">
            <mxPoint x="850" y="-130" as="sourcePoint" />
            <mxPoint x="787" y="-130" as="targetPoint" />
          </mxGeometry>
        </mxCell>
        <mxCell id="yxaKHNAZ0DlgktAPUHoR-31" value="" style="endArrow=block;dashed=1;endFill=0;endSize=12;html=1;rounded=0;fillColor=#f8cecc;strokeColor=#b85450;strokeWidth=2;exitX=0.5;exitY=0;exitDx=0;exitDy=0;" edge="1" parent="1" source="DqQGBqvitNwA1HLZi4oD-5" target="IhKOxY-cwk5jZRTICTOu-1">
          <mxGeometry width="160" relative="1" as="geometry">
            <mxPoint x="950" y="-360" as="sourcePoint" />
            <mxPoint x="1090" y="-200.5" as="targetPoint" />
          </mxGeometry>
        </mxCell>
        <mxCell id="yxaKHNAZ0DlgktAPUHoR-34" value="" style="endArrow=block;dashed=1;endFill=0;endSize=12;html=1;rounded=0;fillColor=#f8cecc;strokeColor=#b85450;strokeWidth=2;exitX=0.25;exitY=1;exitDx=0;exitDy=0;" edge="1" parent="1" source="BovTCXZvYHQh8eO-tCcy-9">
          <mxGeometry width="160" relative="1" as="geometry">
            <mxPoint x="1080" y="-14.620000000000005" as="sourcePoint" />
            <mxPoint x="1308" y="80" as="targetPoint" />
          </mxGeometry>
        </mxCell>
        <mxCell id="yxaKHNAZ0DlgktAPUHoR-35" value="&lt;p style=&quot;margin:0px;margin-top:4px;text-align:center;&quot;&gt;CarApp&lt;/p&gt;&lt;hr size=&quot;1&quot;&gt;+ main(String [], args): void&amp;nbsp;&lt;br&gt;&lt;br&gt;&lt;br&gt;&lt;p style=&quot;margin:0px;margin-left:4px;&quot;&gt;&lt;/p&gt;" style="verticalAlign=top;align=left;overflow=fill;fontSize=12;fontFamily=Helvetica;html=1;rounded=0;shadow=0;comic=0;labelBackgroundColor=none;strokeWidth=1" vertex="1" parent="1">
          <mxGeometry x="1338" y="-80" width="170" height="65" as="geometry" />
        </mxCell>
        <mxCell id="yxaKHNAZ0DlgktAPUHoR-36" value="" style="endArrow=block;dashed=1;endFill=0;endSize=12;html=1;rounded=0;fillColor=#f8cecc;strokeColor=#b85450;strokeWidth=2;entryX=0;entryY=0.5;entryDx=0;entryDy=0;exitX=1.008;exitY=0.549;exitDx=0;exitDy=0;exitPerimeter=0;" edge="1" parent="1" source="BovTCXZvYHQh8eO-tCcy-9" target="yxaKHNAZ0DlgktAPUHoR-9">
          <mxGeometry width="160" relative="1" as="geometry">
            <mxPoint x="1420" y="-210" as="sourcePoint" />
            <mxPoint x="1492" y="-181" as="targetPoint" />
          </mxGeometry>
        </mxCell>
        <mxCell id="yxaKHNAZ0DlgktAPUHoR-37" value="" style="endArrow=classic;html=1;rounded=0;strokeWidth=2;exitX=0.25;exitY=0;exitDx=0;exitDy=0;entryX=0.39;entryY=1.083;entryDx=0;entryDy=0;entryPerimeter=0;" edge="1" parent="1" target="o4XyJDZ6yWFGgHwKhnjA-7">
          <mxGeometry width="50" height="50" relative="1" as="geometry">
            <mxPoint x="1367" y="-392" as="sourcePoint" />
            <mxPoint x="1385" y="-520" as="targetPoint" />
          </mxGeometry>
        </mxCell>
        <mxCell id="yxaKHNAZ0DlgktAPUHoR-43" value="" style="endArrow=block;dashed=1;endFill=0;endSize=12;html=1;rounded=0;fillColor=#f8cecc;strokeColor=#b85450;strokeWidth=2;exitX=0;exitY=0;exitDx=0;exitDy=0;entryX=0.5;entryY=1;entryDx=0;entryDy=0;" edge="1" parent="1" source="yxaKHNAZ0DlgktAPUHoR-35" target="DqQGBqvitNwA1HLZi4oD-5">
          <mxGeometry width="160" relative="1" as="geometry">
            <mxPoint x="820" y="-380" as="sourcePoint" />
            <mxPoint x="1031" y="-230" as="targetPoint" />
          </mxGeometry>
        </mxCell>
        <mxCell id="yKPpbSKZXOLiYvWaupes-3" value="" style="endArrow=block;dashed=1;endFill=0;endSize=12;html=1;rounded=0;fillColor=#f8cecc;strokeColor=#b85450;strokeWidth=2;exitX=0.5;exitY=0;exitDx=0;exitDy=0;entryX=0.869;entryY=1.014;entryDx=0;entryDy=0;entryPerimeter=0;" edge="1" parent="1" source="yxaKHNAZ0DlgktAPUHoR-35" target="BovTCXZvYHQh8eO-tCcy-9">
          <mxGeometry width="160" relative="1" as="geometry">
            <mxPoint x="1232" y="-130" as="sourcePoint" />
            <mxPoint x="1098" y="-230" as="targetPoint" />
          </mxGeometry>
        </mxCell>
        <mxCell id="yKPpbSKZXOLiYvWaupes-4" value="" style="endArrow=block;dashed=1;endFill=0;endSize=12;html=1;rounded=0;fillColor=#f8cecc;strokeColor=#b85450;strokeWidth=2;exitX=1;exitY=0;exitDx=0;exitDy=0;entryX=0;entryY=1;entryDx=0;entryDy=0;" edge="1" parent="1" source="yxaKHNAZ0DlgktAPUHoR-35" target="yxaKHNAZ0DlgktAPUHoR-9">
          <mxGeometry width="160" relative="1" as="geometry">
            <mxPoint x="1185" y="-110" as="sourcePoint" />
            <mxPoint x="1051" y="-210" as="targetPoint" />
          </mxGeometry>
        </mxCell>
        <mxCell id="yKPpbSKZXOLiYvWaupes-5" value="" style="endArrow=block;dashed=1;endFill=0;endSize=12;html=1;rounded=0;fillColor=#f8cecc;strokeColor=#b85450;strokeWidth=2;exitX=0;exitY=1;exitDx=0;exitDy=0;entryX=1;entryY=0;entryDx=0;entryDy=0;" edge="1" parent="1" source="yxaKHNAZ0DlgktAPUHoR-35" target="BovTCXZvYHQh8eO-tCcy-8">
          <mxGeometry width="160" relative="1" as="geometry">
            <mxPoint x="1195" y="-100" as="sourcePoint" />
            <mxPoint x="1061" y="-200" as="targetPoint" />
          </mxGeometry>
        </mxCell>
        <mxCell id="yKPpbSKZXOLiYvWaupes-6" value="" style="endArrow=open;html=1;rounded=0;endFill=0;dashed=1;strokeColor=#82b366;strokeWidth=2;fillColor=#d5e8d4;exitX=1;exitY=1;exitDx=0;exitDy=0;entryX=0;entryY=0.25;entryDx=0;entryDy=0;" edge="1" parent="1" source="DqQGBqvitNwA1HLZi4oD-5" target="DqQGBqvitNwA1HLZi4oD-8">
          <mxGeometry width="50" height="50" relative="1" as="geometry">
            <mxPoint x="1040" y="-4" as="sourcePoint" />
            <mxPoint x="1664" as="targetPoint" />
          </mxGeometry>
        </mxCell>
        <mxCell id="yKPpbSKZXOLiYvWaupes-7" value="&lt;p style=&quot;margin:0px;margin-top:4px;text-align:center;&quot;&gt;&lt;b style=&quot;border-color: var(--border-color);&quot;&gt;ModelListener&lt;/b&gt;&lt;i&gt;&lt;br&gt;&lt;/i&gt;&lt;/p&gt;&lt;p style=&quot;margin:0px;margin-top:4px;text-align:center;&quot;&gt;&lt;i&gt;&amp;lt;&amp;lt;Interface&amp;gt;&amp;gt;&lt;/i&gt;&lt;/p&gt;&lt;hr size=&quot;1&quot;&gt;&lt;p style=&quot;margin:0px;margin-left:4px;&quot;&gt;+ update: void&lt;br&gt;&lt;br&gt;&lt;/p&gt;" style="verticalAlign=top;align=left;overflow=fill;fontSize=12;fontFamily=Helvetica;html=1;rounded=0;shadow=0;comic=0;labelBackgroundColor=none;strokeWidth=1" vertex="1" parent="1">
          <mxGeometry x="1085" y="310" width="190" height="80" as="geometry" />
        </mxCell>
        <mxCell id="yKPpbSKZXOLiYvWaupes-8" value="" style="endArrow=open;html=1;rounded=0;endFill=0;dashed=1;strokeColor=#82b366;strokeWidth=2;fillColor=#d5e8d4;exitX=0;exitY=1;exitDx=0;exitDy=0;" edge="1" parent="1" source="BovTCXZvYHQh8eO-tCcy-10">
          <mxGeometry width="50" height="50" relative="1" as="geometry">
            <mxPoint x="740" y="-376" as="sourcePoint" />
            <mxPoint x="1220" y="310" as="targetPoint" />
          </mxGeometry>
        </mxCell>
        <mxCell id="yKPpbSKZXOLiYvWaupes-12" value="" style="endArrow=block;dashed=1;endFill=0;endSize=12;html=1;rounded=0;fillColor=#f8cecc;strokeColor=#b85450;strokeWidth=2;entryX=0.5;entryY=1;entryDx=0;entryDy=0;" edge="1" parent="1" target="DqQGBqvitNwA1HLZi4oD-5">
          <mxGeometry width="160" relative="1" as="geometry">
            <mxPoint x="1220" y="80" as="sourcePoint" />
            <mxPoint x="1073" y="40" as="targetPoint" />
          </mxGeometry>
        </mxCell>
      </root>
    </mxGraphModel>
  </diagram>
</mxfile>
